<?xml version="1.0" encoding="UTF-8"?><svg id="Layer_2" xmlns="http://www.w3.org/2000/svg" width="267.98" height="42.71" viewBox="0 0 267.98 42.71"><defs><style>.cls-1{fill:#250600;}.cls-1,.cls-2,.cls-3{stroke-width:0px;}.cls-2{fill:#b95136;}.cls-3{fill:#f0e1b8;}</style></defs><g id="Layer_1-2"><polygon class="cls-1" points="267.98 2.55 1.57 2.55 18.85 22.63 1.57 42.71 267.98 42.71 250.71 22.63 267.98 2.55"/><polygon class="cls-1" points="264.4 .76 2.01 .76 18.62 20.08 2.01 39.4 264.4 39.4 247.78 20.08 264.4 .76"/><path class="cls-1" d="m266.41,40.16H0l17.27-20.08L0,0h266.41l-17.27,20.08,17.27,20.08ZM4.01,38.64h258.38l-15.96-18.56,15.96-18.56H4.01l15.96,18.56-15.96,18.56Z"/><polygon class="cls-2" points="261.73 38.38 4.68 38.38 20.42 20.08 4.68 1.78 261.73 1.78 245.98 20.08 261.73 38.38"/><path class="cls-3" d="m264.4,39.4H2.01l16.62-19.32L2.01.76h262.4l-16.62,19.32,16.62,19.32ZM7.35,37.37h251.7l-14.87-17.28,14.87-17.28H7.35l14.87,17.28-14.87,17.28Z"/></g></svg>