<?xml version="1.0" encoding="UTF-8"?><svg id="Layer_2" xmlns="http://www.w3.org/2000/svg" width="440.28" height="443.95" viewBox="0 0 440.28 443.95"><defs><style>.cls-1{fill:#ee9321;}.cls-1,.cls-2,.cls-3{stroke-width:0px;}.cls-2{fill:#d94031;}.cls-3{fill:#1e8e80;}</style></defs><g id="Layer_1-2"><path class="cls-1" d="m85.43,38.3c4.94-15.36,14.13-30.18,28.49-38.3-3.12,4.56-6.32,9.11-8.64,14.16-5.78,12.81-8.19,27.1-7.07,41.1,1.72,20.24,9.65,39.68,21.63,56.01,16.26,21.89,39.01,38.69,64.21,48.93,10.18,4.33,21.39,7.38,29.59,15.22,5.56,5.24,9.95,11.61,15.87,16.49,10.01,9.06,23.26,14.21,31.63,25.11,4.17,5.58,8.16,12.28,7.21,19.53-.52,4.74-3.92,8.34-7.18,11.53-4.56,4.08-9.93,7.18-15.56,9.58-7.71,3.06-15.78,5.1-23.52,8.06-7.63,2.74-14.8,6.57-21.75,10.71-10.46,6.43-21.38,13.09-33.84,14.49-12.26,1.54-25.85-.38-35.57-8.54.77.05,2.3.16,3.06.21-.04-.15-.13-.46-.17-.62.82,1.28,2.6.6,3.88.79,13.96-.44,27.27-5.28,40.06-10.52,11.58-4.45,23.04-9.55,35.17-12.33-16.12,1.16-31.38,6.99-47.29,9.42-16.06,2.71-32.75,3.11-48.66-.77-18.58-4.8-35.63-17.01-44.44-34.28,8.03,6.05,17.2,10.51,26.84,13.35,18.05,4.93,37.04,5.7,55.61,3.83,17.5-1.61,34.68-5.48,52.01-8.25,13.4-1.89,27.18-2.55,40.48.35-4.53-2.08-9.05-4.31-13.96-5.36-16.67-4.16-33.94-2.17-50.82-.63-16.19,1.58-32.59,2.09-48.75-.03-16.62-2.14-32.97-6.76-48.05-14.08-9.58-4.93-18.97-10.54-26.74-18.08-10.55-9.92-19.48-21.75-25.36-35.02-.21,1.17-.41,2.34-.74,3.49-5.35,15.63-7.07,32.27-7.45,48.7-.27,17.77,1.83,35.57,6.53,52.72,3.56,14.38,8.92,28.34,16.15,41.28,6.96,11.75,15.01,22.98,25.12,32.23,12.61,11.57,28.11,20.4,45.09,23.43,12.89,2.18,26.14,2.1,39.06.1,3.93-.55,7.64-2.06,11.57-2.62-10.38-.27-21.26-1.75-30.03-7.74-6.03-4.45-10.85-10.68-13.28-17.8,9.75,7.69,22.64,9.98,34.77,10,27.53-.79,54.59-11.56,75.4-29.55,9-7.77,16.49-17.13,25.65-24.72-2.19,2.81-4.6,5.48-6.48,8.53-7.07,12.33-10.71,26.17-15.7,39.36-7.18,18.72-18.8,35.65-33.55,49.2-12,11.65-27.17,19.67-43.09,24.52-13.42,3.9-27.44,6.01-41.43,5.34-12.84-.87-25.78-3.67-37.12-9.93-13.15-6.62-23.77-17.79-30.17-31,7.5,6.74,15.92,12.62,25.32,16.42,11.85,5.06,24.86,6.8,37.68,6.74,18.36,0,36.6-4.18,53.45-11.41,17.63-7.96,33.39-19.87,46.27-34.27,6.71-7.6,12.39-16.12,17.1-25.08-14.39,16.2-31.63,29.84-50.46,40.54-13.63,7.8-28.57,13.84-44.29,15.53-16.28,1.92-33.09.35-48.52-5.31-11.58-4.13-22.11-10.85-31.45-18.79-12.3-10.71-22.45-23.72-30.69-37.76-14.94-24.88-23.76-53.13-27.25-81.86-2.17-19.37-1.47-38.99,1.41-58.24,3.19-18.63,8.14-37.07,15.95-54.31,1.82-3.59,3.71-7.16,5.93-10.5.17,0,.52.04.69.05,1.54,8.64,4.54,17,8.7,24.72,7.62,13.21,18.06,24.8,30.57,33.54,21.88,16.12,48.05,25.53,74.67,30.18,18.88,3.82,38.25,4.25,57.44,3.37,10.89-.62,21.8-.04,32.62,1.32-16.37-8.72-35.39-7.71-53.3-9.38-12.86-.87-25.52-3.63-37.79-7.51-14.1-4.54-27.44-11.18-40.1-18.84-12.41-7.91-24.19-17.02-33.96-28.11-5.88-6.8-11.29-14.08-15.52-22.03-14.64-27.53-15.04-62.14-.77-89.89,4.07-7.43,8.98-14.6,15.63-19.94-1.3,3.44-3.16,6.67-4.14,10.24-5.21,17.2-4.9,35.81-.38,53.12,4.35,16.35,12.09,31.79,22.59,45.05,9.93,12.65,21.81,23.81,35.1,32.88,20.99,15,45.94,25.23,71.92,26.17,5.92.39,11.86.36,17.76.96-13.4-8.11-28.93-11.33-43.06-17.82-13.45-5.99-26.29-13.39-38.02-22.31-22.12-17.83-39.11-43.15-43.58-71.52-1.8-14.58-.46-29.49,3.77-43.54Z"/><path class="cls-2" d="m134.4,20.78C167.47,6.34,204.21.34,240.14,3.74c18.11,1.7,35.97,5.74,53.14,11.75,25.51,9.47,49.53,23.2,70.1,41.07,21.66,18.54,39.39,41.55,52.35,66.91,12.67,25.91,21.16,54.01,23.62,82.8,3.15,32.91-1.82,66.47-13.76,97.26-7.52,19.58-18.13,37.88-30.75,54.6-25.53,33.76-60.96,59.97-100.78,74.36-20.1,7.2-41.43,11.62-62.86,10.87,10.4-6.65,19.33-15.56,26.06-25.9,11.22-1.74,22.08-5.34,32.63-9.48,21.56-8.46,41.21-21.31,58.45-36.7,16.03-14.41,29.95-31.22,40.79-49.87,14.24-24.75,22.78-52.75,24.91-81.22,2.14-29.9-2.44-60.28-13.37-88.21-9.81-26.15-26.17-49.55-46.14-68.97-18.8-18.01-40.9-32.64-65.03-42.47-16.03-6.3-32.86-10.72-49.98-12.59-18.27-1.64-36.82-1.16-54.81,2.56-16.06,3.15-31.69,8.44-46.36,15.67-4.36,2.4-8.99,4.4-12.87,7.56-.35-9.73-.1-19.48-.18-29.21,3.15-.94,6.04-2.56,9.08-3.77Z"/><path class="cls-2" d="m224.92,65.61c1.67.59,2.43,2.34,3.77,3.4,4.73,3.91,10.1,7.4,16.19,8.68,8.21,2.03,16.78,1.31,25.07.19,7.94-1.15,16.23-2.14,24.04.29,5.31,1.64,9.77,5.23,13.31,9.42,2.87,3.07,5.62,6.77,9.92,7.84,5.19,1.3,10.73,1.62,15.48,4.3,4.98,2.52,8.3,7.71,9.07,13.18-11.15-6.03-25.29-4.37-35.67,2.53-6.34,4.04-12.18,9.52-14.67,16.79-3.65,9.95-1.09,21.3,4.71,29.9,7.35,10.93,18.48,18.46,26.71,28.64,9.53,11.28,15.56,25.78,15.72,40.62.2,13.05-4.55,25.74-11.71,36.51-11.04,16.43-25.92,29.68-38.82,44.56-3.56,4-7.44,7.81-10.05,12.55-.07-2.26,1.11-4.26,1.69-6.37,4.09-14.19,12.59-26.51,17.85-40.21,6.09-14.61,8.33-31.1,4.64-46.62-2.27-9.84-7.26-18.87-13.71-26.58-2.36-2.98-5.09-5.64-7.43-8.64-.39-.03-1.16-.08-1.55-.1.18-.41.38-.8.58-1.18-7.15-6.97-13.46-14.86-18.58-23.45-6.76-11.22-8.48-24.85-6.94-37.68.44-4.13,1.9-8.02,3.16-11.95-1.83,3.8-4.11,7.36-5.7,11.27-4.87,12.59-6.21,26.48-4.09,39.81,1.55,8.74,4.16,17.46,9.17,24.88-6.02-4.75-11.75-10.12-15.67-16.78-6.45-10.82-8.33-23.86-7.21-36.27,1.04-9.18,3.55-18.61,9.58-25.84,3.08-3.5,6.2-7.14,10.37-9.4-10.69,1.42-21.67,4.7-29.84,12.06-6.77,6.17-12.02,14.57-13.25,23.74-1.26-1.84-.67-4.3-.88-6.4-.44-11.72,3.31-23.93,11.53-32.48,4.76-5.04,11.12-8.08,17.47-10.6-.09-.45,9.45-1.79,17.47-.59,10.85,4.14,13.36,5.58,19.25,9.51,4.41,1.21,8.92,2.73,13.57,2.03,4.72-.18,8.85-2.63,13.23-4.07-4.35-2.73-8.56-5.71-13.18-7.97-3.89-1.88-8.28-2.47-12.56-2.34-6.85.3-13.78.83-20.57-.38-9.61-1.78-18.97-6.47-24.97-14.35-3.03-3.65-4.8-8.1-6.5-12.47Z"/><path class="cls-3" d="m267.49,251.31c4.58-5.06,8.75-10.65,11.25-17.04.24,9.7-2.3,19.38-6.09,28.28-3.32,7.71-8.16,14.66-13.37,21.19-14.16,17.44-33.95,29.3-54.44,37.87-10.42,4.62-21.24,8.3-31.54,13.17,2.42-8.25,5.54-16.31,10.08-23.65,8.19-13.4,19.62-25.14,33.82-32.11,10.6-5.54,22.45-8.17,32.91-14.02,6.46-3.62,12.47-8.11,17.38-13.68Z"/><path class="cls-3" d="m260.9,309.55c5.53-8.09,12.47-15.1,19.69-21.66-1.57,2.66-3.36,5.22-4.46,8.14-3.55,9.39-7.19,18.74-10.36,28.27-4.78,16.15-5.03,33.46-11.85,49.04-4.54,11.53-11.7,21.81-19.84,31.07-8.61,9.44-18.18,18.16-29.27,24.6-18.53,11.2-40.58,16.56-62.18,14.51,15.42-3.24,29.62-10.66,42.45-19.65,23.46-16.68,43.67-38.78,55.4-65.27,7.58-16.03,10.37-34.19,20.43-49.05Z"/></g></svg>