<svg width="33" height="32" viewBox="0 0 33 32" fill="none" xmlns="http://www.w3.org/2000/svg">
<path d="M32.9264 16.0548C32.9243 12.9853 32.0481 9.98065 30.4014 7.39641C28.7547 4.81217 26.4065 2.75652 23.6347 1.47271C20.8628 0.188905 17.7834 -0.26932 14.7607 0.152265C11.7381 0.573849 8.89872 1.8576 6.57873 3.85159C4.25873 5.84558 2.55518 8.46635 1.66967 11.4038C0.784158 14.3412 0.753756 17.4723 1.58206 20.4265C2.41037 23.3808 4.0627 26.0345 6.34354 28.0737C8.62438 30.1129 11.4382 31.4522 14.4521 31.9331V20.7004H10.4591V16.0548H14.4521V12.5203C14.4521 8.50389 16.8479 6.26807 20.4949 6.26807C21.6902 6.28551 22.8826 6.39292 24.062 6.58939V10.6058H22.0521C21.7052 10.5517 21.3506 10.5777 21.0152 10.6817C20.6797 10.7857 20.3721 10.9651 20.1157 11.2063C19.8593 11.4474 19.6607 11.7441 19.535 12.0738C19.4093 12.4035 19.3598 12.7576 19.3901 13.1094V16.1217H23.8756L23.1702 20.7674H19.4434V32C23.2144 31.4016 26.6476 29.4644 29.121 26.5393C31.5944 23.6142 32.9444 19.8948 32.9264 16.0548Z" fill="white"/>
</svg>
