<?xml version="1.0" encoding="UTF-8"?><svg id="Layer_2" xmlns="http://www.w3.org/2000/svg" width="739.69" height="171.83" viewBox="0 0 739.69 171.83"><defs><style>.cls-1{fill:none;stroke:#fff;stroke-miterlimit:10;stroke-width:4.34px;}.cls-2{fill:#fff;stroke-width:0px;}</style></defs><g id="W_on_B"><path class="cls-2" d="m175.91,19.61h4.89v25.86h-4.89v-25.86Z"/><path class="cls-2" d="m185.81,26.35h4.8v1.96c1.09-.92,2.07-1.56,2.96-1.91.88-.36,1.79-.54,2.71-.54,1.9,0,3.5.66,4.83,1.99,1.11,1.12,1.67,2.79,1.67,4.99v12.64h-4.75v-8.38c0-2.28-.1-3.8-.31-4.55-.2-.75-.56-1.32-1.07-1.71s-1.14-.59-1.88-.59c-.97,0-1.8.32-2.5.97-.7.65-1.18,1.55-1.45,2.7-.14.6-.21,1.89-.21,3.88v7.67h-4.8v-19.12Z"/><path class="cls-2" d="m221.53,18.96h4.8v26.51h-4.8v-2.02c-.94.89-1.88,1.53-2.82,1.92-.94.39-1.96.59-3.06.59-2.47,0-4.61-.96-6.41-2.87-1.8-1.92-2.7-4.3-2.7-7.15s.87-5.37,2.62-7.26,3.86-2.83,6.36-2.83c1.15,0,2.22.22,3.23.65,1.01.43,1.94,1.08,2.79,1.95v-9.49Zm-5.04,11.32c-1.48,0-2.72.52-3.7,1.57s-1.47,2.39-1.47,4.03.5,3.01,1.5,4.08c1,1.07,2.23,1.6,3.69,1.6s2.76-.52,3.75-1.57,1.49-2.42,1.49-4.12-.5-3.01-1.49-4.04-2.25-1.55-3.77-1.55Z"/><path class="cls-2" d="m233.05,18.47c.84,0,1.56.3,2.16.91.6.61.9,1.35.9,2.21s-.3,1.58-.89,2.19-1.31.91-2.14.91-1.58-.31-2.18-.92c-.6-.62-.9-1.36-.9-2.24s.3-1.56.89-2.16c.6-.6,1.31-.9,2.16-.9Zm-2.4,7.88h4.8v19.12h-4.8v-19.12Z"/><path class="cls-2" d="m253.92,26.35h4.8v19.12h-4.8v-2.02c-.94.89-1.88,1.53-2.82,1.92-.94.39-1.96.59-3.06.59-2.47,0-4.61-.96-6.41-2.87-1.8-1.92-2.7-4.3-2.7-7.15s.87-5.37,2.62-7.26,3.86-2.83,6.36-2.83c1.15,0,2.22.22,3.23.65,1.01.43,1.94,1.08,2.79,1.95v-2.11Zm-5.04,3.94c-1.48,0-2.72.52-3.7,1.57s-1.47,2.39-1.47,4.03.5,3.01,1.5,4.08c1,1.07,2.23,1.6,3.69,1.6s2.76-.52,3.75-1.57,1.49-2.42,1.49-4.12-.5-3.01-1.49-4.04-2.25-1.55-3.77-1.55Z"/><path class="cls-2" d="m263.58,26.35h4.8v1.96c1.09-.92,2.07-1.56,2.96-1.91.88-.36,1.79-.54,2.71-.54,1.9,0,3.5.66,4.83,1.99,1.11,1.12,1.67,2.79,1.67,4.99v12.64h-4.75v-8.38c0-2.28-.1-3.8-.31-4.55-.2-.75-.56-1.32-1.07-1.71s-1.14-.59-1.88-.59c-.97,0-1.8.32-2.5.97-.7.65-1.18,1.55-1.45,2.7-.14.6-.21,1.89-.21,3.88v7.67h-4.8v-19.12Z"/><path class="cls-2" d="m295.43,19.61h4.89v25.86h-4.89v-25.86Z"/><path class="cls-2" d="m305.32,26.35h4.8v1.96c1.09-.92,2.07-1.56,2.96-1.91.88-.36,1.79-.54,2.71-.54,1.9,0,3.5.66,4.83,1.99,1.11,1.12,1.67,2.79,1.67,4.99v12.64h-4.75v-8.38c0-2.28-.1-3.8-.31-4.55-.21-.75-.56-1.32-1.07-1.71s-1.14-.59-1.88-.59c-.97,0-1.8.32-2.5.97s-1.18,1.55-1.45,2.7c-.14.6-.21,1.89-.21,3.88v7.67h-4.8v-19.12Z"/><path class="cls-2" d="m338.63,29.02l-2.97,2.97c-1.21-1.2-2.3-1.79-3.29-1.79-.54,0-.96.11-1.27.34s-.46.51-.46.85c0,.26.1.5.29.71s.67.51,1.43.89l1.76.88c1.85.91,3.12,1.85,3.81,2.79s1.04,2.06,1.04,3.34c0,1.7-.62,3.12-1.87,4.25s-2.92,1.71-5.02,1.71c-2.79,0-5.02-1.09-6.68-3.27l2.95-3.22c.56.66,1.22,1.19,1.98,1.59s1.43.61,2.01.61c.63,0,1.14-.15,1.53-.46s.58-.66.58-1.05c0-.74-.7-1.46-2.09-2.16l-1.62-.81c-3.09-1.56-4.64-3.51-4.64-5.85,0-1.51.58-2.8,1.75-3.88s2.66-1.61,4.47-1.61c1.24,0,2.41.27,3.51.82s2.02,1.33,2.79,2.35Z"/><path class="cls-2" d="m343.34,19.3h4.8v7.05h2.85v4.13h-2.85v14.99h-4.8v-14.99h-2.46v-4.13h2.46v-7.05Z"/><path class="cls-2" d="m355.43,18.47c.84,0,1.56.3,2.17.91.6.61.9,1.35.9,2.21s-.3,1.58-.89,2.19c-.6.6-1.31.91-2.14.91s-1.58-.31-2.18-.92-.9-1.36-.9-2.24.3-1.56.89-2.16c.6-.6,1.31-.9,2.16-.9Zm-2.4,7.88h4.8v19.12h-4.8v-19.12Z"/><path class="cls-2" d="m362.77,19.3h4.8v7.05h2.85v4.13h-2.85v14.99h-4.8v-14.99h-2.46v-4.13h2.46v-7.05Z"/><path class="cls-2" d="m372.96,26.35h4.85v9.21c0,1.79.12,3.04.37,3.74.25.7.64,1.24,1.19,1.63s1.22.58,2.02.58,1.48-.19,2.04-.57c.56-.38.97-.94,1.24-1.68.2-.55.3-1.73.3-3.53v-9.37h4.8v8.1c0,3.34-.26,5.62-.79,6.86-.64,1.5-1.59,2.65-2.85,3.45s-2.85,1.2-4.78,1.2c-2.1,0-3.79-.47-5.09-1.41s-2.21-2.24-2.73-3.92c-.38-1.16-.56-3.27-.56-6.33v-7.96Z"/><path class="cls-2" d="m395.17,19.3h4.8v7.05h2.85v4.13h-2.85v14.99h-4.8v-14.99h-2.46v-4.13h2.46v-7.05Z"/><path class="cls-2" d="m424.54,37.3h-15.42c.22,1.36.82,2.44,1.78,3.24s2.2,1.2,3.7,1.2c1.79,0,3.33-.63,4.62-1.88l4.04,1.9c-1.01,1.43-2.21,2.49-3.62,3.17s-3.08,1.03-5.01,1.03c-3,0-5.44-.95-7.33-2.84s-2.83-4.26-2.83-7.11.94-5.34,2.82-7.27,4.24-2.89,7.08-2.89c3.01,0,5.46.96,7.35,2.89s2.83,4.47,2.83,7.64l-.02.91Zm-4.8-3.78c-.32-1.07-.94-1.93-1.88-2.6-.93-.67-2.02-1-3.25-1-1.34,0-2.51.38-3.52,1.12-.63.47-1.22,1.29-1.76,2.48h10.41Z"/><path class="cls-2" d="m447.48,25.85c1.8,0,3.5.45,5.09,1.35s2.83,2.13,3.72,3.67,1.34,3.22,1.34,5.01-.45,3.49-1.34,5.06-2.12,2.8-3.67,3.68-3.25,1.33-5.12,1.33c-2.74,0-5.08-.98-7.02-2.93s-2.91-4.32-2.91-7.11c0-2.99,1.1-5.48,3.29-7.47,1.92-1.73,4.13-2.6,6.63-2.6Zm.08,4.52c-1.49,0-2.73.52-3.72,1.56-.99,1.04-1.49,2.36-1.49,3.98s.49,3.01,1.47,4.04c.98,1.03,2.22,1.55,3.72,1.55s2.75-.52,3.75-1.56c1-1.04,1.5-2.38,1.5-4.03s-.49-2.97-1.47-4c-.98-1.03-2.23-1.54-3.76-1.54Z"/><path class="cls-2" d="m459.25,26.35h1.71c.01-2.51.05-3.99.12-4.45.13-1.05.57-1.89,1.33-2.5s1.83-.92,3.21-.92c1,0,2.12.23,3.38.69v3.66c-.69-.2-1.26-.3-1.71-.3-.56,0-.97.12-1.23.35-.19.18-.28.54-.28,1.09l-.02,2.39h3.04v4.06h-3.04v15.06h-4.8v-15.06h-1.71v-4.06Z"/><path class="cls-2" d="m199.91,66.33l-3.65,3.22c-1.28-1.78-2.58-2.67-3.91-2.67-.65,0-1.17.17-1.58.52-.41.35-.62.74-.62,1.17s.15.84.44,1.23c.4.52,1.6,1.62,3.61,3.32,1.88,1.57,3.02,2.56,3.42,2.97,1,1.01,1.71,1.97,2.12,2.89.42.92.62,1.92.62,3.01,0,2.12-.73,3.87-2.2,5.26s-3.38,2.07-5.74,2.07c-1.84,0-3.45-.45-4.81-1.35s-2.54-2.32-3.51-4.25l4.14-2.5c1.24,2.29,2.68,3.43,4.3,3.43.85,0,1.56-.25,2.13-.74s.86-1.06.86-1.71c0-.59-.22-1.17-.65-1.76-.43-.59-1.39-1.48-2.87-2.69-2.82-2.3-4.64-4.07-5.46-5.32s-1.23-2.49-1.23-3.74c0-1.79.68-3.33,2.05-4.61s3.05-1.92,5.06-1.92c1.29,0,2.52.3,3.69.9,1.17.6,2.43,1.69,3.79,3.27Z"/><path class="cls-2" d="m209.29,69.55v2.11c.87-.87,1.8-1.52,2.81-1.95s2.09-.65,3.23-.65c2.5,0,4.62.94,6.36,2.83s2.62,4.31,2.62,7.26-.9,5.23-2.71,7.15-3.94,2.87-6.42,2.87c-1.1,0-2.13-.2-3.08-.59s-1.89-1.03-2.83-1.92v9.02h-4.76v-26.12h4.76Zm5.04,3.94c-1.51,0-2.77.52-3.76,1.55s-1.49,2.38-1.49,4.04.5,3.07,1.49,4.12,2.25,1.57,3.76,1.57,2.7-.53,3.7-1.6,1.5-2.43,1.5-4.08-.49-2.99-1.48-4.03-2.23-1.57-3.73-1.57Z"/><path class="cls-2" d="m242.41,69.55h4.8v19.12h-4.8v-2.02c-.94.89-1.88,1.53-2.82,1.92-.94.39-1.96.59-3.06.59-2.47,0-4.61-.96-6.41-2.87-1.8-1.92-2.7-4.3-2.7-7.15s.87-5.37,2.62-7.26,3.86-2.83,6.36-2.83c1.15,0,2.22.22,3.23.65,1.01.43,1.94,1.08,2.79,1.95v-2.11Zm-5.04,3.94c-1.48,0-2.72.52-3.7,1.57s-1.47,2.39-1.47,4.03.5,3.01,1.5,4.08c1,1.07,2.23,1.6,3.69,1.6s2.76-.52,3.75-1.57,1.49-2.42,1.49-4.12-.5-3.01-1.49-4.04-2.25-1.55-3.77-1.55Z"/><path class="cls-2" d="m270.78,73.41l-4,2.2c-.75-.79-1.49-1.33-2.23-1.63s-1.59-.46-2.58-.46c-1.8,0-3.25.54-4.36,1.61-1.11,1.07-1.66,2.44-1.66,4.12s.53,2.96,1.6,3.98c1.07,1.03,2.47,1.54,4.21,1.54,2.15,0,3.82-.73,5.02-2.2l3.78,2.59c-2.05,2.67-4.95,4-8.68,4-3.36,0-6-1-7.9-2.99s-2.86-4.32-2.86-7c0-1.85.46-3.56,1.39-5.12s2.22-2.78,3.88-3.67,3.51-1.34,5.56-1.34c1.9,0,3.6.38,5.12,1.13s2.75,1.83,3.71,3.23Z"/><path class="cls-2" d="m294.27,80.5h-15.42c.22,1.36.82,2.44,1.78,3.24s2.2,1.2,3.7,1.2c1.79,0,3.33-.63,4.62-1.88l4.04,1.9c-1.01,1.43-2.21,2.49-3.62,3.17s-3.08,1.03-5.01,1.03c-3,0-5.44-.95-7.33-2.84s-2.83-4.26-2.83-7.11.94-5.34,2.82-7.27,4.24-2.89,7.08-2.89c3.01,0,5.46.96,7.35,2.89s2.83,4.47,2.83,7.64l-.02.91Zm-4.8-3.78c-.32-1.07-.94-1.93-1.88-2.6-.93-.67-2.02-1-3.25-1-1.34,0-2.51.38-3.52,1.12-.63.47-1.22,1.29-1.76,2.48h10.41Z"/><path class="cls-2" d="m322.32,66.33l-3.65,3.22c-1.28-1.78-2.58-2.67-3.91-2.67-.65,0-1.17.17-1.58.52s-.62.74-.62,1.17.15.84.44,1.23c.4.52,1.6,1.62,3.61,3.32,1.88,1.57,3.02,2.56,3.42,2.97,1,1.01,1.71,1.97,2.12,2.89s.62,1.92.62,3.01c0,2.12-.73,3.87-2.2,5.26-1.47,1.38-3.38,2.07-5.74,2.07-1.84,0-3.45-.45-4.81-1.35-1.37-.9-2.54-2.32-3.51-4.25l4.14-2.5c1.25,2.29,2.68,3.43,4.3,3.43.84,0,1.56-.25,2.13-.74s.86-1.06.86-1.71c0-.59-.22-1.17-.65-1.76s-1.39-1.48-2.87-2.69c-2.82-2.3-4.64-4.07-5.46-5.32-.82-1.25-1.23-2.49-1.23-3.74,0-1.79.68-3.33,2.05-4.61,1.37-1.28,3.05-1.92,5.06-1.92,1.29,0,2.52.3,3.69.9,1.17.6,2.43,1.69,3.79,3.27Z"/><path class="cls-2" d="m345.67,73.41l-4,2.2c-.75-.79-1.49-1.33-2.23-1.63s-1.59-.46-2.58-.46c-1.79,0-3.25.54-4.36,1.61s-1.66,2.44-1.66,4.12.53,2.96,1.6,3.98c1.07,1.03,2.47,1.54,4.21,1.54,2.15,0,3.82-.73,5.02-2.2l3.78,2.59c-2.05,2.67-4.95,4-8.68,4-3.36,0-6-1-7.9-2.99s-2.86-4.32-2.86-7c0-1.85.46-3.56,1.39-5.12s2.22-2.78,3.88-3.67,3.51-1.34,5.56-1.34c1.9,0,3.6.38,5.12,1.13s2.75,1.83,3.71,3.23Z"/><path class="cls-2" d="m351.86,61.67c.84,0,1.56.3,2.17.91.6.61.9,1.35.9,2.21s-.3,1.58-.89,2.19c-.6.6-1.31.91-2.14.91s-1.58-.31-2.18-.92-.9-1.36-.9-2.24.3-1.56.89-2.16c.6-.6,1.31-.9,2.16-.9Zm-2.4,7.87h4.8v19.12h-4.8v-19.12Z"/><path class="cls-2" d="m377.78,80.5h-15.42c.22,1.36.82,2.44,1.78,3.24s2.2,1.2,3.7,1.2c1.79,0,3.33-.63,4.62-1.88l4.04,1.9c-1.01,1.43-2.21,2.49-3.62,3.17s-3.08,1.03-5.01,1.03c-3,0-5.44-.95-7.33-2.84s-2.83-4.26-2.83-7.11.94-5.34,2.82-7.27,4.24-2.89,7.08-2.89c3.01,0,5.46.96,7.35,2.89s2.83,4.47,2.83,7.64l-.02.91Zm-4.8-3.78c-.32-1.07-.94-1.93-1.88-2.6-.93-.67-2.02-1-3.25-1-1.34,0-2.51.38-3.52,1.12-.63.47-1.22,1.29-1.76,2.48h10.41Z"/><path class="cls-2" d="m381.67,69.55h4.8v1.96c1.09-.92,2.07-1.56,2.96-1.91.88-.36,1.79-.54,2.71-.54,1.9,0,3.5.66,4.83,1.99,1.11,1.12,1.67,2.79,1.67,4.99v12.64h-4.75v-8.37c0-2.28-.1-3.8-.31-4.55-.21-.75-.56-1.32-1.07-1.71s-1.14-.59-1.88-.59c-.97,0-1.8.32-2.5.97s-1.18,1.55-1.45,2.7c-.14.6-.21,1.89-.21,3.88v7.67h-4.8v-19.12Z"/><path class="cls-2" d="m421.99,73.41l-4,2.2c-.75-.79-1.49-1.33-2.23-1.63s-1.59-.46-2.58-.46c-1.79,0-3.25.54-4.36,1.61s-1.66,2.44-1.66,4.12.53,2.96,1.6,3.98c1.07,1.03,2.47,1.54,4.21,1.54,2.15,0,3.82-.73,5.02-2.2l3.78,2.59c-2.05,2.67-4.95,4-8.68,4-3.36,0-6-1-7.9-2.99s-2.86-4.32-2.86-7c0-1.85.46-3.56,1.39-5.12s2.22-2.78,3.88-3.67,3.51-1.34,5.56-1.34c1.9,0,3.6.38,5.12,1.13s2.75,1.83,3.71,3.23Z"/><path class="cls-2" d="m445.47,80.5h-15.42c.22,1.36.82,2.44,1.78,3.24s2.2,1.2,3.7,1.2c1.79,0,3.33-.63,4.62-1.88l4.04,1.9c-1.01,1.43-2.21,2.49-3.62,3.17s-3.08,1.03-5.01,1.03c-3,0-5.44-.95-7.33-2.84s-2.83-4.26-2.83-7.11.94-5.34,2.82-7.27,4.24-2.89,7.08-2.89c3.01,0,5.46.96,7.35,2.89s2.83,4.47,2.83,7.64l-.02.91Zm-4.8-3.78c-.32-1.07-.94-1.93-1.88-2.6-.93-.67-2.02-1-3.25-1-1.34,0-2.51.38-3.52,1.12-.63.47-1.22,1.29-1.76,2.48h10.41Z"/><path class="cls-2" d="m473.55,69.55h4.8v19.12h-4.8v-2.02c-.94.89-1.88,1.53-2.82,1.92s-1.96.59-3.06.59c-2.47,0-4.61-.96-6.41-2.87-1.8-1.92-2.7-4.3-2.7-7.15s.87-5.37,2.62-7.26,3.86-2.83,6.36-2.83c1.15,0,2.22.22,3.23.65s1.94,1.08,2.79,1.95v-2.11Zm-5.04,3.94c-1.48,0-2.71.52-3.7,1.57s-1.47,2.39-1.47,4.03.5,3.01,1.5,4.08c1,1.07,2.23,1.6,3.69,1.6s2.76-.52,3.75-1.57c.99-1.05,1.49-2.42,1.49-4.12s-.5-3.01-1.49-4.04c-.99-1.03-2.25-1.55-3.77-1.55Z"/><path class="cls-2" d="m483.2,69.55h4.8v1.96c1.09-.92,2.07-1.56,2.96-1.91.88-.36,1.79-.54,2.71-.54,1.9,0,3.5.66,4.83,1.99,1.11,1.12,1.67,2.79,1.67,4.99v12.64h-4.75v-8.37c0-2.28-.1-3.8-.31-4.55-.21-.75-.56-1.32-1.07-1.71s-1.14-.59-1.88-.59c-.97,0-1.8.32-2.5.97s-1.18,1.55-1.45,2.7c-.14.6-.21,1.89-.21,3.88v7.67h-4.8v-19.12Z"/><path class="cls-2" d="m518.92,62.16h4.8v26.51h-4.8v-2.02c-.94.89-1.88,1.53-2.82,1.92s-1.96.59-3.06.59c-2.47,0-4.61-.96-6.41-2.87-1.8-1.92-2.7-4.3-2.7-7.15s.87-5.37,2.62-7.26,3.86-2.83,6.36-2.83c1.15,0,2.22.22,3.23.65s1.94,1.08,2.79,1.95v-9.49Zm-5.04,11.32c-1.48,0-2.71.52-3.7,1.57s-1.47,2.39-1.47,4.03.5,3.01,1.5,4.08c1,1.07,2.23,1.6,3.69,1.6s2.76-.52,3.75-1.57c.99-1.05,1.49-2.42,1.49-4.12s-.5-3.01-1.49-4.04c-.99-1.03-2.25-1.55-3.77-1.55Z"/><path class="cls-2" d="m536.62,62.81h14.29v4.85h-4.71v21.01h-4.99v-21.01h-4.59v-4.85Z"/><path class="cls-2" d="m572.92,80.5h-15.42c.22,1.36.82,2.44,1.78,3.24s2.2,1.2,3.7,1.2c1.79,0,3.33-.63,4.62-1.88l4.04,1.9c-1.01,1.43-2.21,2.49-3.62,3.17s-3.08,1.03-5.01,1.03c-3,0-5.44-.95-7.33-2.84s-2.83-4.26-2.83-7.11.94-5.34,2.82-7.27,4.24-2.89,7.08-2.89c3.01,0,5.46.96,7.35,2.89s2.83,4.47,2.83,7.64l-.02.91Zm-4.8-3.78c-.32-1.07-.94-1.93-1.88-2.6-.93-.67-2.02-1-3.25-1-1.34,0-2.51.38-3.52,1.12-.63.47-1.22,1.29-1.76,2.48h10.41Z"/><path class="cls-2" d="m595.52,73.41l-4,2.2c-.75-.79-1.49-1.33-2.23-1.63s-1.59-.46-2.58-.46c-1.79,0-3.25.54-4.36,1.61s-1.66,2.44-1.66,4.12.53,2.96,1.6,3.98c1.07,1.03,2.47,1.54,4.21,1.54,2.15,0,3.82-.73,5.02-2.2l3.78,2.59c-2.05,2.67-4.95,4-8.68,4-3.36,0-6-1-7.9-2.99s-2.86-4.32-2.86-7c0-1.85.46-3.56,1.39-5.12s2.22-2.78,3.88-3.67,3.51-1.34,5.56-1.34c1.9,0,3.6.38,5.12,1.13s2.75,1.83,3.71,3.23Z"/><path class="cls-2" d="m599.86,62.16h4.76v9.32c.94-.81,1.88-1.42,2.83-1.82s1.91-.61,2.88-.61c1.9,0,3.5.66,4.8,1.97,1.11,1.14,1.67,2.81,1.67,5.01v12.64h-4.73v-8.38c0-2.21-.11-3.71-.32-4.5s-.57-1.37-1.08-1.76-1.14-.58-1.89-.58c-.97,0-1.81.32-2.5.97s-1.18,1.52-1.45,2.64c-.14.57-.21,1.89-.21,3.94v7.68h-4.76v-26.51Z"/><path class="cls-2" d="m621.45,69.55h4.8v1.96c1.09-.92,2.07-1.56,2.96-1.91.88-.36,1.79-.54,2.71-.54,1.9,0,3.5.66,4.83,1.99,1.11,1.12,1.67,2.79,1.67,4.99v12.64h-4.75v-8.37c0-2.28-.1-3.8-.31-4.55-.21-.75-.56-1.32-1.07-1.71s-1.14-.59-1.88-.59c-.97,0-1.8.32-2.5.97s-1.18,1.55-1.45,2.7c-.14.6-.21,1.89-.21,3.88v7.67h-4.8v-19.12Z"/><path class="cls-2" d="m652.03,69.05c1.8,0,3.5.45,5.09,1.35s2.83,2.13,3.72,3.67,1.34,3.22,1.34,5.01-.45,3.49-1.34,5.06-2.12,2.8-3.67,3.68-3.25,1.33-5.12,1.33c-2.74,0-5.08-.98-7.02-2.93s-2.91-4.32-2.91-7.11c0-2.99,1.1-5.48,3.29-7.47,1.92-1.73,4.13-2.6,6.63-2.6Zm.08,4.52c-1.49,0-2.73.52-3.72,1.56-.99,1.04-1.49,2.36-1.49,3.98s.49,3.01,1.47,4.04c.98,1.03,2.22,1.55,3.72,1.55s2.75-.52,3.75-1.56c1-1.04,1.5-2.38,1.5-4.03s-.49-2.97-1.47-4c-.98-1.03-2.23-1.54-3.76-1.54Z"/><path class="cls-2" d="m665.57,62.16h4.8v26.51h-4.8v-26.51Z"/><path class="cls-2" d="m683.71,69.05c1.8,0,3.5.45,5.09,1.35s2.83,2.13,3.72,3.67,1.34,3.22,1.34,5.01-.45,3.49-1.34,5.06-2.12,2.8-3.67,3.68-3.25,1.33-5.12,1.33c-2.74,0-5.08-.98-7.02-2.93s-2.91-4.32-2.91-7.11c0-2.99,1.1-5.48,3.29-7.47,1.92-1.73,4.13-2.6,6.63-2.6Zm.08,4.52c-1.49,0-2.73.52-3.72,1.56-.99,1.04-1.49,2.36-1.49,3.98s.49,3.01,1.47,4.04c.98,1.03,2.22,1.55,3.72,1.55s2.75-.52,3.75-1.56c1-1.04,1.5-2.38,1.5-4.03s-.49-2.97-1.47-4c-.98-1.03-2.23-1.54-3.76-1.54Z"/><path class="cls-2" d="m711.91,69.55h4.78v16.38c0,3.23-.65,5.61-1.95,7.14-1.75,2.06-4.38,3.09-7.89,3.09-1.88,0-3.45-.23-4.73-.7s-2.36-1.16-3.23-2.07-1.53-2.01-1.95-3.31h5.29c.47.54,1.07.95,1.81,1.22s1.61.41,2.62.41c1.29,0,2.33-.2,3.11-.6s1.34-.91,1.66-1.55.48-1.72.48-3.27c-.84.84-1.73,1.45-2.65,1.82s-1.97.55-3.15.55c-2.57,0-4.73-.93-6.5-2.78s-2.65-4.2-2.65-7.03c0-3.04.94-5.47,2.81-7.31,1.7-1.66,3.73-2.5,6.08-2.5,1.1,0,2.14.2,3.12.61s1.96,1.07,2.94,2v-2.11Zm-4.97,3.99c-1.51,0-2.76.51-3.74,1.52s-1.48,2.29-1.48,3.82.5,2.9,1.51,3.92,2.27,1.53,3.8,1.53,2.72-.5,3.68-1.49,1.45-2.3,1.45-3.92-.49-2.89-1.46-3.88-2.23-1.49-3.76-1.49Z"/><path class="cls-2" d="m719.42,69.55h4.9l4.97,12,5.48-12h4.92l-11.98,26.12h-4.96l3.93-8.42-7.27-17.7Z"/><path class="cls-2" d="m180.9,104.34v-1.69h9.45v1.69h-3.84v15.55h-1.76v-15.55h-3.84Z"/><path class="cls-2" d="m192.56,102.22h1.64v7.21c.66-.88,1.39-1.53,2.19-1.96s1.66-.65,2.59-.65,1.8.24,2.54.73,1.28,1.13,1.63,1.95.53,2.1.53,3.84v6.56h-1.64v-6.08c0-1.47-.06-2.45-.18-2.94-.2-.84-.57-1.48-1.11-1.9s-1.24-.64-2.1-.64c-.99,0-1.88.33-2.67.98s-1.3,1.47-1.55,2.44c-.16.62-.23,1.78-.23,3.47v4.68h-1.64v-17.67Z"/><path class="cls-2" d="m207.77,101.89c.37,0,.69.13.96.4.26.27.4.59.4.96s-.13.68-.4.95c-.26.27-.58.4-.96.4s-.68-.13-.95-.4c-.26-.27-.4-.58-.4-.95s.13-.7.4-.96c.26-.27.58-.4.95-.4Zm-.81,5.25h1.64v12.75h-1.64v-12.75Z"/><path class="cls-2" d="m211.38,107.14h1.68v1.86c.5-.73,1.03-1.28,1.58-1.65s1.13-.54,1.73-.54c.45,0,.94.14,1.45.43l-.86,1.38c-.34-.15-.63-.22-.87-.22-.55,0-1.07.22-1.58.67s-.89,1.15-1.16,2.09c-.2.73-.3,2.2-.3,4.41v4.31h-1.68v-12.75Z"/><path class="cls-2" d="m219.01,107.14h1.64v5.95c0,1.45.08,2.45.23,3,.23.78.68,1.4,1.34,1.85s1.45.68,2.36.68,1.69-.22,2.33-.66,1.08-1.02,1.32-1.74c.16-.49.25-1.54.25-3.13v-5.95h1.68v6.26c0,1.76-.21,3.08-.62,3.97s-1.03,1.59-1.85,2.09-1.86.76-3.1.76-2.28-.25-3.11-.76-1.45-1.21-1.86-2.11-.62-2.26-.62-4.07v-6.14Z"/><path class="cls-2" d="m232.6,107.14h1.75l4.28,9.29,4.23-9.29h1.76l-5.84,12.75h-.3l-5.87-12.75Z"/><path class="cls-2" d="m259.82,107.14v12.75h-1.62v-2.19c-.69.84-1.46,1.46-2.31,1.89s-1.79.63-2.81.63c-1.8,0-3.35-.65-4.62-1.96s-1.92-2.9-1.92-4.78.64-3.41,1.93-4.71,2.84-1.96,4.65-1.96c1.05,0,1.99.22,2.84.67s1.59,1.11,2.23,2v-2.34h1.62Zm-6.56,1.25c-.91,0-1.76.22-2.53.67-.77.45-1.39,1.08-1.84,1.89s-.68,1.67-.68,2.58.23,1.76.69,2.58,1.08,1.46,1.86,1.91,1.61.68,2.5.68,1.75-.23,2.55-.68c.8-.45,1.42-1.07,1.86-1.84.43-.77.65-1.64.65-2.61,0-1.47-.49-2.71-1.46-3.7-.97-.99-2.17-1.49-3.59-1.49Z"/><path class="cls-2" d="m263.51,107.14h1.64v2.29c.66-.88,1.38-1.53,2.18-1.96s1.66-.65,2.6-.65,1.8.24,2.54.73,1.28,1.14,1.63,1.96.53,2.1.53,3.83v6.56h-1.64v-6.08c0-1.47-.06-2.45-.18-2.94-.19-.84-.55-1.48-1.09-1.9s-1.24-.64-2.11-.64c-.99,0-1.88.33-2.67.98s-1.3,1.47-1.55,2.44c-.16.63-.23,1.79-.23,3.47v4.68h-1.64v-12.75Z"/><path class="cls-2" d="m290.85,107.14v12.75h-1.62v-2.19c-.69.84-1.46,1.46-2.31,1.89s-1.79.63-2.81.63c-1.8,0-3.35-.65-4.62-1.96s-1.92-2.9-1.92-4.78.64-3.41,1.93-4.71,2.84-1.96,4.65-1.96c1.05,0,1.99.22,2.84.67s1.59,1.11,2.23,2v-2.34h1.62Zm-6.56,1.25c-.91,0-1.76.22-2.53.67-.77.45-1.39,1.08-1.84,1.89s-.68,1.67-.68,2.58.23,1.76.69,2.58,1.08,1.46,1.86,1.91,1.61.68,2.5.68,1.75-.23,2.55-.68c.8-.45,1.42-1.07,1.86-1.84.43-.77.65-1.64.65-2.61,0-1.47-.49-2.71-1.46-3.7-.97-.99-2.17-1.49-3.59-1.49Z"/><path class="cls-2" d="m294.54,107.14h1.64v2.29c.66-.88,1.38-1.53,2.18-1.96s1.66-.65,2.6-.65,1.8.24,2.54.73,1.28,1.14,1.63,1.96.53,2.1.53,3.83v6.56h-1.64v-6.08c0-1.47-.06-2.45-.18-2.94-.19-.84-.55-1.48-1.09-1.9s-1.24-.64-2.11-.64c-.99,0-1.88.33-2.67.98s-1.3,1.47-1.55,2.44c-.16.63-.23,1.79-.23,3.47v4.68h-1.64v-12.75Z"/><path class="cls-2" d="m310.6,102.41h1.64v4.73h2.6v1.42h-2.6v11.33h-1.64v-11.33h-2.24v-1.42h2.24v-4.73Z"/><path class="cls-2" d="m317.31,102.22h1.64v7.21c.66-.88,1.39-1.53,2.19-1.96s1.66-.65,2.59-.65,1.8.24,2.54.73,1.28,1.13,1.63,1.95.53,2.1.53,3.84v6.56h-1.64v-6.08c0-1.47-.06-2.45-.18-2.94-.2-.84-.57-1.48-1.11-1.9s-1.24-.64-2.1-.64c-.99,0-1.88.33-2.67.98s-1.3,1.47-1.55,2.44c-.16.62-.23,1.78-.23,3.47v4.68h-1.64v-17.67Z"/><path class="cls-2" d="m344.65,107.14v12.75h-1.62v-2.19c-.69.84-1.46,1.46-2.31,1.89s-1.79.63-2.81.63c-1.8,0-3.35-.65-4.62-1.96s-1.92-2.9-1.92-4.78.64-3.41,1.93-4.71,2.84-1.96,4.65-1.96c1.05,0,1.99.22,2.84.67s1.59,1.11,2.23,2v-2.34h1.62Zm-6.56,1.25c-.91,0-1.76.22-2.53.67-.77.45-1.39,1.08-1.84,1.89s-.68,1.67-.68,2.58.23,1.76.69,2.58,1.08,1.46,1.86,1.91,1.61.68,2.5.68,1.75-.23,2.55-.68c.8-.45,1.42-1.07,1.86-1.84.43-.77.65-1.64.65-2.61,0-1.47-.49-2.71-1.46-3.7-.97-.99-2.17-1.49-3.59-1.49Z"/><path class="cls-2" d="m348.36,107.14h1.64v2.34c.65-.89,1.39-1.56,2.24-2,.84-.45,1.78-.67,2.82-.67,1.81,0,3.36.65,4.65,1.96s1.93,2.88,1.93,4.71-.64,3.47-1.91,4.78-2.82,1.96-4.62,1.96c-1.01,0-1.95-.21-2.8-.63-.85-.42-1.62-1.05-2.31-1.89v6.86h-1.64v-17.41Zm6.56,1.25c-1.42,0-2.61.5-3.58,1.49-.97.99-1.46,2.22-1.46,3.7,0,.97.22,1.84.65,2.61s1.05,1.38,1.86,1.84c.81.45,1.66.68,2.55.68s1.71-.23,2.48-.68,1.39-1.09,1.85-1.91c.46-.82.69-1.68.69-2.58s-.23-1.76-.68-2.58c-.46-.81-1.07-1.44-1.84-1.89-.77-.45-1.61-.67-2.53-.67Z"/><path class="cls-2" d="m364.5,107.14h1.64v5.95c0,1.45.08,2.45.23,3,.24.78.68,1.4,1.34,1.85s1.45.68,2.37.68,1.69-.22,2.33-.66c.64-.44,1.08-1.02,1.32-1.74.16-.49.25-1.54.25-3.13v-5.95h1.68v6.26c0,1.76-.21,3.08-.62,3.97s-1.03,1.59-1.85,2.09-1.86.76-3.1.76-2.28-.25-3.11-.76-1.45-1.21-1.86-2.11-.62-2.26-.62-4.07v-6.14Z"/><path class="cls-2" d="m378.68,107.14h1.68v1.86c.5-.73,1.03-1.28,1.58-1.65s1.13-.54,1.73-.54c.45,0,.94.14,1.45.43l-.86,1.38c-.34-.15-.63-.22-.87-.22-.55,0-1.07.22-1.58.67s-.89,1.15-1.16,2.09c-.2.73-.3,2.2-.3,4.41v4.31h-1.68v-12.75Z"/><path class="cls-2" d="m399.22,107.14v12.75h-1.62v-2.19c-.69.84-1.46,1.46-2.31,1.89s-1.79.63-2.81.63c-1.8,0-3.35-.65-4.62-1.96s-1.92-2.9-1.92-4.78.64-3.41,1.93-4.71,2.84-1.96,4.65-1.96c1.05,0,1.99.22,2.84.67s1.59,1.11,2.23,2v-2.34h1.62Zm-6.56,1.25c-.91,0-1.76.22-2.53.67-.77.45-1.39,1.08-1.84,1.89s-.68,1.67-.68,2.58.23,1.76.69,2.58,1.08,1.46,1.86,1.91,1.61.68,2.5.68,1.75-.23,2.55-.68c.8-.45,1.42-1.07,1.86-1.84.43-.77.65-1.64.65-2.61,0-1.47-.49-2.71-1.46-3.7-.97-.99-2.17-1.49-3.59-1.49Z"/><path class="cls-2" d="m402.9,107.14h1.64v2.2c.57-.81,1.16-1.41,1.76-1.78.83-.5,1.7-.75,2.62-.75.62,0,1.2.12,1.76.36s1.01.56,1.36.97c.35.4.66.98.92,1.73.54-1,1.23-1.76,2.05-2.28s1.7-.78,2.64-.78c.88,0,1.66.22,2.33.67.67.45,1.17,1.07,1.5,1.86s.49,1.99.49,3.59v6.96h-1.68v-6.96c0-1.37-.1-2.31-.29-2.82s-.53-.92-1-1.24c-.47-.31-1.03-.47-1.69-.47-.79,0-1.52.23-2.18.7-.66.47-1.14,1.09-1.44,1.88s-.46,2.09-.46,3.91v4.99h-1.64v-6.53c0-1.54-.1-2.58-.29-3.13s-.53-.99-1-1.32-1.04-.5-1.7-.5c-.76,0-1.47.23-2.13.69s-1.15,1.07-1.46,1.85-.47,1.96-.47,3.55v5.4h-1.64v-12.75Z"/><path class="cls-2" d="m424.36,112.7h6.45v1.43h-6.45v-1.43Z"/><path class="cls-2" d="m440.38,102.22l1.42.93-4.66,7.05c.62-.21,1.21-.32,1.76-.32,1.37,0,2.53.49,3.49,1.48.95.99,1.43,2.21,1.43,3.65,0,.99-.23,1.89-.69,2.69-.46.8-1.12,1.44-1.96,1.91s-1.76.71-2.74.71-1.82-.23-2.63-.69-1.45-1.1-1.91-1.93c-.46-.83-.69-1.71-.69-2.66,0-.7.14-1.44.43-2.22.29-.78.8-1.71,1.53-2.81l5.24-7.8Zm-1.89,9.18c-1,0-1.86.35-2.56,1.06s-1.06,1.56-1.06,2.57.35,1.85,1.06,2.56c.71.71,1.56,1.06,2.56,1.06s1.86-.35,2.56-1.06,1.06-1.56,1.06-2.56-.35-1.87-1.06-2.57-1.56-1.06-2.57-1.06Z"/><path class="cls-2" d="m449.47,120.33l-1.42-.91,4.66-7.06c-.62.21-1.21.31-1.76.31-1.37,0-2.53-.49-3.49-1.48s-1.43-2.21-1.43-3.65c0-.99.23-1.89.69-2.68s1.12-1.43,1.96-1.91,1.76-.71,2.72-.71,1.83.23,2.64.69,1.44,1.11,1.9,1.93.69,1.71.69,2.65c0,.71-.14,1.46-.43,2.23s-.79,1.71-1.53,2.81l-5.23,7.79Zm1.88-9.18c1.01,0,1.87-.35,2.57-1.06s1.05-1.56,1.05-2.56-.35-1.85-1.06-2.56-1.56-1.06-2.57-1.06-1.85.35-2.56,1.06-1.06,1.56-1.06,2.56.35,1.85,1.06,2.56c.71.71,1.56,1.06,2.57,1.06Z"/><path class="cls-2" d="m469.97,102.65v1.64h-6.13l-.86,4.7c.75-.22,1.42-.33,2.03-.33,1.57,0,2.86.53,3.88,1.58s1.53,2.4,1.53,4.04c0,1.13-.26,2.17-.79,3.12s-1.23,1.67-2.13,2.17-1.93.76-3.1.76c-1.4,0-2.58-.43-3.54-1.28s-1.54-1.96-1.72-3.32h1.77c.13.66.36,1.2.67,1.62s.74.75,1.27,1,1.08.38,1.66.38c1.13,0,2.11-.43,2.92-1.29.81-.86,1.22-1.93,1.22-3.22,0-1.16-.37-2.11-1.1-2.83s-1.71-1.09-2.94-1.09c-1.02,0-2.25.31-3.69.93l1.59-8.57h7.46Z"/><path class="cls-2" d="m483.27,102.65v1.64h-6.13l-.86,4.7c.75-.22,1.42-.33,2.03-.33,1.57,0,2.86.53,3.88,1.58s1.53,2.4,1.53,4.04c0,1.13-.26,2.17-.79,3.12s-1.23,1.67-2.13,2.17-1.93.76-3.1.76c-1.4,0-2.58-.43-3.54-1.28s-1.54-1.96-1.72-3.32h1.77c.13.66.36,1.2.67,1.62s.74.75,1.27,1,1.08.38,1.66.38c1.13,0,2.11-.43,2.92-1.29.81-.86,1.22-1.93,1.22-3.22,0-1.16-.37-2.11-1.1-2.83s-1.71-1.09-2.94-1.09c-1.02,0-2.25.31-3.69.93l1.59-8.57h7.46Z"/><path class="cls-2" d="m494.99,102.22h.35v12.02h2.09v1.64h-2.09v4.01h-1.71v-4.01h-8.25l9.61-13.66Zm-1.36,12.02v-7.24l-5.11,7.24h5.11Z"/><path class="cls-2" d="m499.79,102.65h10.93l-9.22,17.67-1.43-.73,7.96-15.3h-8.24v-1.64Z"/><path class="cls-2" d="m175.41,148.69v-17.24h3.57c2.58,0,4.45.21,5.61.62,1.67.59,2.98,1.6,3.92,3.05.94,1.45,1.41,3.17,1.41,5.17,0,1.73-.37,3.25-1.12,4.56s-1.71,2.28-2.91,2.91-2.86.94-5.01.94h-5.48Zm1.65-1.63h1.99c2.38,0,4.04-.15,4.96-.44,1.3-.42,2.32-1.18,3.06-2.28s1.11-2.44,1.11-4.02-.4-3.08-1.21-4.26-1.93-1.99-3.36-2.42c-1.08-.33-2.86-.49-5.33-.49h-1.22v13.92Z"/><path class="cls-2" d="m203.73,144.46l1.38.73c-.45.89-.98,1.61-1.57,2.16s-1.26.96-2.01,1.25c-.74.29-1.58.43-2.52.43-2.08,0-3.71-.68-4.88-2.04-1.17-1.36-1.76-2.9-1.76-4.62,0-1.62.5-3.06,1.49-4.32,1.26-1.61,2.94-2.41,5.06-2.41s3.91.82,5.21,2.47c.92,1.16,1.39,2.62,1.41,4.36h-11.47c.03,1.48.5,2.7,1.42,3.64.92.95,2.05,1.42,3.39,1.42.65,0,1.28-.11,1.89-.34.61-.23,1.14-.53,1.57-.9.43-.37.9-.98,1.4-1.81Zm0-3.43c-.22-.88-.54-1.57-.96-2.1-.42-.52-.97-.95-1.66-1.27s-1.41-.48-2.17-.48c-1.25,0-2.33.4-3.23,1.21-.66.59-1.15,1.46-1.49,2.64h9.5Z"/><path class="cls-2" d="m208.62,135.94h1.64v2.34c.65-.89,1.39-1.56,2.24-2,.84-.45,1.78-.67,2.82-.67,1.81,0,3.36.65,4.65,1.96,1.29,1.3,1.93,2.88,1.93,4.71s-.64,3.47-1.91,4.78c-1.28,1.31-2.82,1.96-4.62,1.96-1.02,0-1.95-.21-2.8-.63s-1.62-1.05-2.31-1.89v6.86h-1.64v-17.41Zm6.56,1.25c-1.42,0-2.61.5-3.58,1.49-.97.99-1.46,2.22-1.46,3.7,0,.97.22,1.84.65,2.61s1.05,1.38,1.86,1.84c.81.45,1.66.68,2.55.68s1.71-.23,2.48-.68c.78-.46,1.39-1.09,1.85-1.91s.69-1.68.69-2.58-.23-1.76-.68-2.58-1.07-1.44-1.84-1.89c-.77-.45-1.61-.67-2.53-.67Z"/><path class="cls-2" d="m237.67,135.94v12.75h-1.62v-2.19c-.69.84-1.46,1.46-2.31,1.89s-1.79.63-2.81.63c-1.8,0-3.35-.65-4.62-1.96s-1.92-2.9-1.92-4.78.64-3.41,1.93-4.71,2.84-1.96,4.65-1.96c1.05,0,1.99.22,2.84.67s1.59,1.11,2.23,2v-2.34h1.62Zm-6.56,1.25c-.91,0-1.76.22-2.53.67-.77.45-1.39,1.08-1.84,1.89s-.68,1.67-.68,2.58.23,1.76.69,2.58,1.08,1.46,1.86,1.91c.78.46,1.61.68,2.5.68s1.75-.23,2.55-.68c.8-.45,1.42-1.07,1.86-1.84.43-.77.65-1.64.65-2.61,0-1.47-.49-2.71-1.46-3.7-.97-.99-2.17-1.49-3.59-1.49Z"/><path class="cls-2" d="m240.74,135.94h1.68v1.86c.5-.73,1.03-1.28,1.58-1.65s1.13-.54,1.73-.54c.45,0,.94.14,1.45.43l-.86,1.38c-.34-.15-.63-.22-.87-.22-.55,0-1.07.22-1.58.67s-.89,1.15-1.16,2.09c-.2.73-.3,2.2-.3,4.41v4.31h-1.68v-12.75Z"/><path class="cls-2" d="m250.01,131.21h1.64v4.73h2.6v1.42h-2.6v11.33h-1.64v-11.33h-2.24v-1.42h2.24v-4.73Z"/><path class="cls-2" d="m256.7,135.94h1.64v2.2c.57-.81,1.16-1.41,1.76-1.78.83-.5,1.7-.75,2.62-.75.62,0,1.2.12,1.76.36.56.24,1.01.56,1.36.97.35.4.66.98.92,1.73.55-1,1.23-1.76,2.05-2.28s1.7-.78,2.64-.78c.88,0,1.66.22,2.33.67.67.45,1.17,1.07,1.5,1.86.33.8.49,1.99.49,3.59v6.96h-1.68v-6.96c0-1.37-.1-2.31-.29-2.82-.19-.51-.53-.92-1-1.24s-1.03-.47-1.69-.47c-.79,0-1.52.23-2.18.7s-1.14,1.09-1.44,1.88c-.3.78-.46,2.09-.46,3.91v4.99h-1.64v-6.53c0-1.54-.1-2.58-.29-3.13s-.53-.99-1-1.32-1.04-.5-1.7-.5c-.76,0-1.47.23-2.13.69s-1.15,1.07-1.46,1.85-.47,1.96-.47,3.55v5.4h-1.64v-12.75Z"/><path class="cls-2" d="m289.96,144.46l1.38.73c-.45.89-.98,1.61-1.57,2.16s-1.26.96-2.01,1.25c-.74.29-1.58.43-2.52.43-2.08,0-3.71-.68-4.88-2.04-1.17-1.36-1.76-2.9-1.76-4.62,0-1.62.5-3.06,1.49-4.32,1.26-1.61,2.94-2.41,5.06-2.41s3.91.82,5.21,2.47c.92,1.16,1.39,2.62,1.41,4.36h-11.47c.03,1.48.5,2.7,1.42,3.64.92.95,2.05,1.42,3.39,1.42.65,0,1.28-.11,1.89-.34.61-.23,1.14-.53,1.57-.9.43-.37.9-.98,1.4-1.81Zm0-3.43c-.22-.88-.54-1.57-.96-2.1-.42-.52-.97-.95-1.66-1.27s-1.41-.48-2.17-.48c-1.25,0-2.33.4-3.23,1.21-.66.59-1.15,1.46-1.49,2.64h9.5Z"/><path class="cls-2" d="m294.82,135.94h1.64v2.29c.66-.88,1.38-1.53,2.18-1.96s1.66-.65,2.6-.65,1.8.24,2.54.73,1.28,1.14,1.63,1.96.53,2.1.53,3.83v6.56h-1.64v-6.08c0-1.47-.06-2.45-.18-2.94-.19-.84-.55-1.48-1.09-1.9s-1.24-.64-2.11-.64c-.99,0-1.88.33-2.67.98s-1.3,1.47-1.55,2.44c-.16.63-.23,1.79-.23,3.47v4.68h-1.64v-12.75Z"/><path class="cls-2" d="m310.89,131.21h1.64v4.73h2.6v1.42h-2.6v11.33h-1.64v-11.33h-2.24v-1.42h2.24v-4.73Z"/><path class="cls-2" d="m330.27,135.61c1.96,0,3.59.71,4.88,2.13,1.17,1.3,1.76,2.83,1.76,4.61s-.62,3.34-1.86,4.67c-1.24,1.33-2.84,2-4.78,2s-3.55-.67-4.8-2c-1.24-1.33-1.86-2.89-1.86-4.67s.59-3.3,1.76-4.59c1.29-1.43,2.92-2.14,4.9-2.14Zm0,1.61c-1.36,0-2.54.5-3.52,1.51-.98,1.01-1.47,2.23-1.47,3.66,0,.92.22,1.78.67,2.58.45.8,1.05,1.41,1.81,1.85s1.6.65,2.5.65,1.74-.22,2.5-.65,1.36-1.05,1.81-1.85c.45-.8.67-1.66.67-2.58,0-1.43-.49-2.65-1.48-3.66-.98-1.01-2.15-1.51-3.51-1.51Z"/><path class="cls-2" d="m345.2,131.02v1.61c-.6-.26-1.12-.39-1.55-.39-.32,0-.59.06-.8.19s-.34.28-.4.45-.08.62-.08,1.34v1.72s2.66,0,2.66,0v1.42h-2.66v11.33h-1.65v-11.33h-1.68v-1.42h1.68v-1.99c0-.91.08-1.57.25-1.96s.45-.71.86-.94.89-.36,1.46-.36c.53,0,1.17.11,1.91.33Z"/><path class="cls-2" d="m352.62,145.48l1.46-.88c1.03,1.9,2.22,2.85,3.57,2.85.58,0,1.12-.13,1.63-.4s.89-.63,1.16-1.08.4-.93.4-1.44c0-.58-.2-1.14-.59-1.7-.54-.77-1.52-1.69-2.95-2.77-1.44-1.09-2.33-1.87-2.68-2.36-.61-.81-.91-1.69-.91-2.64,0-.75.18-1.43.54-2.05s.87-1.1,1.52-1.46,1.36-.53,2.13-.53c.81,0,1.57.2,2.28.6s1.46,1.14,2.24,2.22l-1.41,1.07c-.65-.86-1.2-1.43-1.66-1.7s-.96-.41-1.49-.41c-.7,0-1.26.21-1.71.63s-.66.94-.66,1.56c0,.37.08.74.23,1.09s.44.73.86,1.15c.23.22.97.79,2.23,1.72,1.49,1.1,2.52,2.08,3.07,2.94s.83,1.72.83,2.59c0,1.25-.47,2.34-1.42,3.26s-2.1,1.38-3.46,1.38c-1.05,0-2-.28-2.85-.84s-1.64-1.49-2.36-2.81Z"/><path class="cls-2" d="m366.11,135.94h1.64v2.34c.65-.89,1.39-1.56,2.24-2,.84-.45,1.78-.67,2.82-.67,1.81,0,3.36.65,4.65,1.96s1.93,2.88,1.93,4.71-.64,3.47-1.91,4.78-2.82,1.96-4.62,1.96c-1.01,0-1.95-.21-2.8-.63-.85-.42-1.62-1.05-2.31-1.89v6.86h-1.64v-17.41Zm6.56,1.25c-1.42,0-2.61.5-3.58,1.49-.97.99-1.46,2.22-1.46,3.7,0,.97.22,1.84.65,2.61s1.05,1.38,1.86,1.84c.81.45,1.66.68,2.55.68s1.71-.23,2.48-.68c.78-.46,1.39-1.09,1.85-1.91.46-.82.69-1.68.69-2.58s-.23-1.76-.68-2.58c-.46-.81-1.07-1.44-1.84-1.89-.77-.45-1.61-.67-2.53-.67Z"/><path class="cls-2" d="m395.16,135.94v12.75h-1.62v-2.19c-.69.84-1.46,1.46-2.31,1.89s-1.79.63-2.81.63c-1.8,0-3.35-.65-4.62-1.96s-1.92-2.9-1.92-4.78.64-3.41,1.93-4.71,2.84-1.96,4.65-1.96c1.05,0,1.99.22,2.84.67s1.59,1.11,2.23,2v-2.34h1.62Zm-6.56,1.25c-.91,0-1.76.22-2.53.67-.77.45-1.39,1.08-1.84,1.89s-.68,1.67-.68,2.58.23,1.76.69,2.58,1.08,1.46,1.86,1.91c.78.46,1.61.68,2.5.68s1.75-.23,2.55-.68c.8-.45,1.42-1.07,1.86-1.84.43-.77.65-1.64.65-2.61,0-1.47-.49-2.71-1.46-3.7-.97-.99-2.17-1.49-3.59-1.49Z"/><path class="cls-2" d="m411.23,138.59l-1.3.81c-1.12-1.49-2.66-2.24-4.6-2.24-1.55,0-2.84.5-3.87,1.5-1.03,1-1.54,2.21-1.54,3.64,0,.93.24,1.8.71,2.62s1.12,1.46,1.94,1.91c.82.45,1.75.68,2.77.68,1.87,0,3.4-.75,4.59-2.24l1.3.86c-.61.92-1.43,1.63-2.46,2.14s-2.2.76-3.51.76c-2.02,0-3.69-.64-5.02-1.92s-1.99-2.84-1.99-4.68c0-1.23.31-2.38.93-3.44s1.47-1.88,2.56-2.48,2.3-.89,3.64-.89c.84,0,1.66.13,2.44.39s1.45.59,2,1.01,1.01.94,1.39,1.58Z"/><path class="cls-2" d="m425.11,144.46l1.38.73c-.45.89-.98,1.61-1.57,2.16-.59.55-1.26.96-2,1.25-.74.29-1.58.43-2.52.43-2.08,0-3.71-.68-4.88-2.04s-1.76-2.9-1.76-4.62c0-1.62.5-3.06,1.49-4.32,1.26-1.61,2.94-2.41,5.06-2.41s3.91.82,5.21,2.47c.92,1.16,1.39,2.62,1.41,4.36h-11.47c.03,1.48.5,2.7,1.42,3.64.92.95,2.04,1.42,3.39,1.42.65,0,1.28-.11,1.89-.34s1.14-.53,1.57-.9c.43-.37.9-.98,1.4-1.81Zm0-3.43c-.22-.88-.54-1.57-.96-2.1-.42-.52-.97-.95-1.66-1.27-.69-.32-1.41-.48-2.17-.48-1.25,0-2.33.4-3.23,1.21-.66.59-1.15,1.46-1.49,2.64h9.5Z"/><path class="cls-2" d="m431.6,145.53l1.58.75-2.38,4.43-1.16-.49,1.96-4.69Z"/><path class="cls-2" d="m460.16,134.35l-1.34,1.27c-.96-.94-2.01-1.66-3.16-2.15s-2.26-.73-3.35-.73c-1.35,0-2.64.33-3.86,1s-2.17,1.56-2.84,2.7-1.01,2.34-1.01,3.6.35,2.53,1.04,3.7,1.66,2.09,2.88,2.75,2.57,1,4.03,1c1.77,0,3.27-.5,4.5-1.5s1.95-2.3,2.18-3.89h-5.5v-1.66h7.43c-.02,2.66-.81,4.78-2.37,6.35s-3.66,2.35-6.29,2.35c-3.19,0-5.71-1.09-7.57-3.26-1.43-1.67-2.14-3.61-2.14-5.8,0-1.63.41-3.15,1.23-4.56.82-1.41,1.95-2.51,3.38-3.3s3.05-1.19,4.85-1.19c1.46,0,2.84.26,4.12.79s2.55,1.37,3.77,2.54Z"/><path class="cls-2" d="m470.23,135.61c1.96,0,3.59.71,4.88,2.13,1.17,1.3,1.76,2.83,1.76,4.61s-.62,3.34-1.86,4.67c-1.24,1.33-2.84,2-4.78,2s-3.55-.67-4.8-2c-1.24-1.33-1.86-2.89-1.86-4.67s.59-3.3,1.76-4.59c1.29-1.43,2.92-2.14,4.9-2.14Zm0,1.61c-1.36,0-2.54.5-3.52,1.51-.98,1.01-1.47,2.23-1.47,3.66,0,.92.22,1.78.67,2.58.45.8,1.05,1.41,1.81,1.85s1.6.65,2.5.65,1.74-.22,2.5-.65,1.36-1.05,1.81-1.85c.45-.8.67-1.66.67-2.58,0-1.43-.49-2.65-1.48-3.66-.98-1.01-2.15-1.51-3.51-1.51Z"/><path class="cls-2" d="m478.7,135.94h1.75l4.28,9.29,4.23-9.29h1.76l-5.84,12.75h-.3l-5.87-12.75Z"/><path class="cls-2" d="m494.64,131.21h1.64v4.73h2.6v1.42h-2.6v11.33h-1.64v-11.33h-2.24v-1.42h2.24v-4.73Z"/><path class="cls-2" d="m503.15,146.11c.4,0,.74.14,1.02.42s.42.62.42,1.03-.14.74-.42,1.03-.62.43-1.02.43-.74-.14-1.02-.43-.42-.63-.42-1.03.14-.75.42-1.03.62-.42,1.02-.42Z"/><path class="cls-2" d="m520.67,135.61c1.96,0,3.59.71,4.88,2.13,1.17,1.3,1.76,2.83,1.76,4.61s-.62,3.34-1.86,4.67c-1.24,1.33-2.84,2-4.78,2s-3.55-.67-4.8-2c-1.24-1.33-1.86-2.89-1.86-4.67s.59-3.3,1.76-4.59c1.29-1.43,2.92-2.14,4.9-2.14Zm0,1.61c-1.36,0-2.54.5-3.52,1.51-.98,1.01-1.47,2.23-1.47,3.66,0,.92.22,1.78.67,2.58.45.8,1.05,1.41,1.81,1.85s1.6.65,2.5.65,1.74-.22,2.5-.65,1.36-1.05,1.81-1.85c.45-.8.67-1.66.67-2.58,0-1.43-.49-2.65-1.48-3.66-.98-1.01-2.15-1.51-3.51-1.51Z"/><path class="cls-2" d="m535.6,131.02v1.61c-.6-.26-1.12-.39-1.55-.39-.32,0-.59.06-.8.19s-.34.28-.4.45-.08.62-.08,1.34v1.72s2.66,0,2.66,0v1.42h-2.66v11.33h-1.65v-11.33h-1.68v-1.42h1.68v-1.99c0-.91.08-1.57.25-1.96s.45-.71.86-.94.89-.36,1.46-.36c.53,0,1.17.11,1.91.33Z"/><path class="cls-2" d="m544.55,131.45h1.72v17.24h-1.72v-17.24Z"/><path class="cls-2" d="m549.95,135.94h1.64v2.29c.66-.88,1.38-1.53,2.18-1.96s1.66-.65,2.6-.65,1.8.24,2.54.73,1.28,1.14,1.63,1.96.53,2.1.53,3.83v6.56h-1.64v-6.08c0-1.47-.06-2.45-.18-2.94-.19-.84-.55-1.48-1.09-1.9s-1.24-.64-2.11-.64c-.99,0-1.88.33-2.67.98s-1.3,1.47-1.55,2.44c-.16.63-.23,1.79-.23,3.47v4.68h-1.64v-12.75Z"/><path class="cls-2" d="m577.32,131.02v17.67h-1.62v-2.19c-.69.84-1.46,1.46-2.31,1.89s-1.79.63-2.81.63c-1.8,0-3.35-.65-4.62-1.96s-1.92-2.9-1.92-4.78.64-3.41,1.93-4.71,2.84-1.96,4.65-1.96c1.05,0,1.99.22,2.84.67s1.59,1.11,2.23,2v-7.27h1.62Zm-6.56,6.18c-.91,0-1.76.22-2.53.67-.77.45-1.39,1.08-1.84,1.89s-.68,1.67-.68,2.58.23,1.76.69,2.58,1.08,1.46,1.86,1.91c.78.46,1.61.68,2.5.68s1.75-.23,2.55-.68c.8-.45,1.42-1.07,1.86-1.84.43-.77.65-1.64.65-2.61,0-1.47-.49-2.71-1.46-3.7-.97-.99-2.17-1.49-3.59-1.49Z"/><path class="cls-2" d="m581.6,130.69c.37,0,.69.13.96.4.26.27.4.59.4.96s-.13.68-.4.95c-.26.27-.58.4-.96.4s-.68-.13-.95-.4-.4-.58-.4-.95.13-.7.4-.96.58-.4.95-.4Zm-.81,5.25h1.64v12.75h-1.64v-12.75Z"/><path class="cls-2" d="m598.54,135.94v12.75h-1.62v-2.19c-.69.84-1.46,1.46-2.31,1.89s-1.79.63-2.81.63c-1.8,0-3.35-.65-4.62-1.96s-1.92-2.9-1.92-4.78.64-3.41,1.93-4.71,2.84-1.96,4.65-1.96c1.05,0,1.99.22,2.84.67s1.59,1.11,2.23,2v-2.34h1.62Zm-6.56,1.25c-.91,0-1.76.22-2.53.67-.77.45-1.39,1.08-1.84,1.89s-.68,1.67-.68,2.58.23,1.76.69,2.58,1.08,1.46,1.86,1.91c.78.46,1.61.68,2.5.68s1.75-.23,2.55-.68c.8-.45,1.42-1.07,1.86-1.84.43-.77.65-1.64.65-2.61,0-1.47-.49-2.71-1.46-3.7-.97-.99-2.17-1.49-3.59-1.49Z"/><path class="cls-2" d="m31.92,65.22v44.17l3.12,3.12s8.9-19.97,1.2-47.3h-4.32Z"/><circle class="cls-2" cx="33.92" cy="61.34" r="1.99"/><path class="cls-2" d="m55.54,65.22v44.17l3.12,3.12s8.9-19.97,1.2-47.3h-4.32Z"/><circle class="cls-2" cx="57.53" cy="61.34" r="1.99"/><path class="cls-2" d="m124.72,55.56s-1.05,4.34-2.35,21.8c0,0-2.56.09-6.41,1.68v3.02h6.08s-2.06,25.81,4.81,30.9l2.15-1.46s-2.06-2.01-2.06-11.96v-17.38h11.09l1.88-1.88s-5.7-3.27-12.56-3.33v-19.13l-2.63-2.27Z"/><path class="cls-2" d="m108.29,8.78c-9.73,10.38-16.12,23.2-18,36.41-.44,3.31-.72,6.62-.58,9.94l.02,1.24.09,1.24c.06.83.1,1.65.18,2.48l.33,2.47.16,1.23.23,1.23.45,2.45.6,2.42c.36,1.62.87,3.22,1.36,4.81,1.01,3.19,2.26,6.3,3.6,9.4.68,1.55,1.48,3.07,2.21,4.61l.28.58.3.69.61,1.4c.43.93.72,1.88,1.05,2.82,1.27,3.78,1.92,7.74,2.05,11.65.26,7.85-1.53,15.41-4.27,22.3-2.75,6.92-6.49,13.26-10.78,19.1-4.31,5.81-9.15,11.21-14.65,15.81,3.88-6.01,7.44-12.09,10.57-18.32,3.13-6.22,5.82-12.59,7.71-19.06,1.88-6.46,2.92-13.06,2.48-19.38-.22-3.16-.83-6.23-1.83-9.16-.27-.72-.49-1.47-.83-2.15l-.46-1.04-.23-.53-.3-.62c-.78-1.67-1.6-3.29-2.33-4.99-2.97-6.8-5.1-14.06-6.04-21.53-.31-1.85-.34-3.75-.49-5.63-.03-.94-.01-1.89-.02-2.83v-1.41s.07-1.41.07-1.41c.06-.94.11-1.88.19-2.82l.36-2.8c.1-.94.31-1.86.48-2.78.18-.92.34-1.85.6-2.75,1.76-7.3,5-14.16,9.25-20.13,2.16-2.97,4.49-5.78,7.12-8.28,2.6-2.52,5.41-4.82,8.48-6.65Z"/><circle class="cls-1" cx="85.91" cy="85.91" r="83.74"/></g></svg>