<svg width="33" height="32" viewBox="0 0 33 32" fill="none" xmlns="http://www.w3.org/2000/svg">
<path d="M16.2401 0C11.901 0 11.3553 0 9.65161 0.09317C8.32775 0.121403 7.0182 0.373412 5.7784 0.83853C4.71445 1.24407 3.74824 1.86992 2.94311 2.67505C2.13799 3.48017 1.51214 4.44639 1.1066 5.51034C0.641478 6.75013 0.389469 8.05969 0.361236 9.38355C0.268066 11.0872 0.268066 11.6329 0.268066 15.972C0.268066 20.3111 0.268066 20.8568 0.361236 22.627C0.387926 23.951 0.639985 25.2608 1.1066 26.5002C1.51244 27.5452 2.13374 28.493 2.93007 29.282C3.73091 30.0924 4.69822 30.7191 5.76509 31.1188C7.00489 31.5839 8.31444 31.8359 9.6383 31.8642C11.3553 31.944 11.901 31.944 16.2401 31.944C20.5791 31.944 21.1248 31.944 22.8285 31.8508C24.1525 31.8242 25.4623 31.5721 26.7017 31.1055C27.7705 30.708 28.7417 30.0862 29.5501 29.282C30.3604 28.4812 30.9871 27.5139 31.3868 26.447C31.8416 25.2232 32.089 23.9322 32.1189 22.627C32.2121 20.8568 32.2121 20.3111 32.2121 15.972C32.2121 11.6329 32.2121 11.0872 32.1189 9.38355C32.0922 8.05952 31.8401 6.74971 31.3735 5.51034C30.968 4.44639 30.3421 3.48017 29.537 2.67505C28.7319 1.86992 27.7657 1.24407 26.7017 0.83853C25.4834 0.37927 24.1967 0.127331 22.8951 0.09317C21.1248 0 20.5791 0 16.2401 0ZM16.2401 2.87496C20.4993 2.87496 21.0184 2.87496 22.6954 2.96813C23.7096 2.98198 24.7138 3.17111 25.6635 3.52715C26.3587 3.77567 26.9872 4.18102 27.5003 4.71174C28.031 5.22487 28.4364 5.85339 28.6849 6.54852C29.046 7.49686 29.2353 8.50193 29.2439 9.51665C29.3105 11.207 29.3371 11.7128 29.3371 15.972C29.3371 20.2312 29.3371 20.7503 29.2306 22.4274C29.2168 23.4416 29.0276 24.4457 28.6716 25.3955C28.4134 26.089 28.0042 26.7164 27.4737 27.2323C26.9606 27.763 26.332 28.1683 25.6369 28.4169C24.689 28.7793 23.6836 28.9687 22.6688 28.9759C20.9784 29.0424 20.4726 29.069 16.2001 29.069C11.9276 29.069 11.4218 29.069 9.73147 28.9626C8.71727 28.9487 7.7131 28.7596 6.76334 28.4035C6.06672 28.1516 5.43799 27.7416 4.92657 27.2057C4.39176 26.6933 3.98191 26.0648 3.72867 25.3689C3.37262 24.4191 3.1835 23.4149 3.16965 22.4007C3.1031 20.7237 3.08979 20.2046 3.08979 15.9587C3.08979 11.7128 3.08979 11.1804 3.16965 9.47672C3.1835 8.46252 3.37262 7.45835 3.72867 6.50859C3.97885 5.81109 4.38913 5.18198 4.92657 4.67181C5.43673 4.13438 6.06584 3.72409 6.76334 3.47391C7.71022 3.1241 8.70894 2.93515 9.71816 2.91489C11.4085 2.91489 11.9143 2.83503 16.1735 2.83503L16.2401 2.87496ZM16.2401 7.77304C14.6185 7.77304 13.0333 8.2539 11.685 9.15482C10.3367 10.0557 9.28577 11.3362 8.66521 12.8344C8.04465 14.3326 7.88229 15.9811 8.19864 17.5715C8.515 19.162 9.29588 20.6229 10.4425 21.7695C11.5892 22.9162 13.0501 23.6971 14.6405 24.0134C16.231 24.3298 17.8795 24.1674 19.3777 23.5469C20.8758 22.9263 22.1563 21.8754 23.0572 20.5271C23.9582 19.1788 24.439 17.5936 24.439 15.972C24.439 13.7975 23.5752 11.7121 22.0376 10.1745C20.5 8.63686 18.4146 7.77304 16.2401 7.77304ZM16.2401 21.296C15.1871 21.296 14.1577 20.9838 13.2822 20.3988C12.4067 19.8137 11.7243 18.9822 11.3213 18.0094C10.9184 17.0366 10.8129 15.9661 11.0184 14.9333C11.2238 13.9006 11.7309 12.9519 12.4754 12.2074C13.22 11.4628 14.1686 10.9557 15.2014 10.7503C16.2342 10.5449 17.3046 10.6503 18.2775 11.0533C19.2503 11.4562 20.0818 12.1386 20.6668 13.0141C21.2518 13.8897 21.5641 14.919 21.5641 15.972C21.5641 17.384 21.0031 18.7382 20.0047 19.7366C19.0063 20.7351 17.6521 21.296 16.2401 21.296ZM26.6884 7.4536C26.6884 7.83268 26.576 8.20324 26.3654 8.51843C26.1548 8.83362 25.8555 9.07928 25.5052 9.22435C25.155 9.36941 24.7696 9.40737 24.3979 9.33342C24.0261 9.25946 23.6845 9.07692 23.4165 8.80887C23.1485 8.54082 22.9659 8.19931 22.892 7.82752C22.818 7.45573 22.856 7.07036 23.001 6.72014C23.1461 6.36992 23.3918 6.07058 23.7069 5.85997C24.0221 5.64937 24.3927 5.53696 24.7718 5.53696C25.279 5.54045 25.7645 5.7435 26.1232 6.10219C26.4819 6.46087 26.6849 6.94635 26.6884 7.4536Z" fill="white"/>
</svg>
