<svg width="33" height="32" viewBox="0 0 33 32" fill="none" xmlns="http://www.w3.org/2000/svg">
<path d="M27.7724 27.2193H23.034V19.8056C23.034 18.0354 23.034 15.8126 20.5717 15.8126C18.1094 15.8126 17.7367 17.7293 17.7367 19.7125V27.2592H12.9983V11.9793H17.537V14.0557H17.6036C18.0594 13.2787 18.7171 12.6395 19.5068 12.206C20.2965 11.7725 21.1888 11.5608 22.089 11.5934C26.8806 11.5934 27.7724 14.7478 27.7724 18.8606V27.2193ZM7.66101 9.88968C7.11872 9.88968 6.58861 9.72887 6.13771 9.42759C5.68681 9.12631 5.33538 8.69809 5.12786 8.19708C4.92033 7.69607 4.86603 7.14477 4.97183 6.6129C5.07762 6.08104 5.33876 5.59248 5.72222 5.20903C6.10567 4.82557 6.59423 4.56443 7.12609 4.45864C7.65796 4.35284 8.20926 4.40714 8.71027 4.61467C9.21128 4.82219 9.6395 5.17362 9.94078 5.62452C10.2421 6.07542 10.4029 6.60553 10.4029 7.14781C10.4029 7.875 10.114 8.5724 9.59979 9.0866C9.08559 9.6008 8.38819 9.88968 7.66101 9.88968ZM10.0302 27.1927H5.29183V11.9793H10.0302V27.1927ZM30.1416 0.000344853H2.90934C2.60345 -0.00317098 2.29987 0.0536016 2.01592 0.16742C1.73198 0.281239 1.47323 0.449875 1.25447 0.663698C1.0357 0.877521 0.861195 1.13234 0.740917 1.41361C0.620639 1.69488 0.556943 1.99709 0.553467 2.30297L0.553467 29.6417C0.556943 29.9476 0.620639 30.2498 0.740917 30.5311C0.861195 30.8124 1.0357 31.0672 1.25447 31.281C1.47323 31.4948 1.73198 31.6635 2.01592 31.7773C2.29987 31.8911 2.60345 31.9479 2.90934 31.9443H30.1283C30.4353 31.9496 30.7403 31.8942 31.0258 31.7811C31.3113 31.6681 31.5716 31.4998 31.7918 31.2858C32.0119 31.0718 32.1876 30.8163 32.3088 30.5342C32.4299 30.2521 32.494 29.9487 32.4975 29.6417V2.30297C32.494 1.99595 32.4299 1.69264 32.3088 1.41049C32.1876 1.12835 32.0119 0.872927 31.7918 0.658929C31.5716 0.444931 31.3113 0.276578 31.0258 0.163553C30.7403 0.0505279 30.4353 -0.00493828 30.1283 0.000344853H30.1416Z" fill="white"/>
</svg>
