<svg width="46" height="32" viewBox="0 0 46 32" fill="none" xmlns="http://www.w3.org/2000/svg">
<path d="M18.4404 22.8571L30.2047 16L18.4404 9.14286V22.8571ZM44.6437 4.96C44.9384 6.03429 45.1424 7.47429 45.2784 9.30286C45.437 11.1314 45.5051 12.7086 45.5051 14.08L45.6411 16C45.6411 21.0057 45.2784 24.6857 44.6437 27.04C44.077 29.0971 42.7623 30.4229 40.7223 30.9943C39.6569 31.2914 37.7075 31.4971 34.7155 31.6343C31.7687 31.7943 29.0713 31.8629 26.5779 31.8629L22.9738 32C13.4763 32 7.56015 31.6343 5.22542 30.9943C3.18538 30.4229 1.87068 29.0971 1.304 27.04C1.00932 25.9657 0.805319 24.5257 0.669316 22.6971C0.510646 20.8686 0.442644 19.2914 0.442644 17.92L0.306641 16C0.306641 10.9943 0.669316 7.31429 1.304 4.96C1.87068 2.90286 3.18538 1.57714 5.22542 1.00571C6.29078 0.708572 8.24016 0.502857 11.2322 0.365714C14.179 0.205714 16.8764 0.137143 19.3698 0.137143L22.9738 0C32.4714 0 38.3876 0.365714 40.7223 1.00571C42.7623 1.57714 44.077 2.90286 44.6437 4.96Z" fill="white"/>
</svg>
